<svg width="331" height="77" viewBox="0 0 331 77" fill="none" xmlns="http://www.w3.org/2000/svg">
<g clip-path="url(#clip0_165_175)">
<path d="M118.36 49.1627H111.299V19.8406H102.137V57.1596H118.36V49.1627Z" fill="#000411"/>
<path d="M137.892 19.8406C130.832 19.8406 125.119 25.4917 125.119 32.529C125.119 39.513 130.832 45.1642 137.892 45.1642C145.006 45.1642 150.719 39.513 150.719 32.529C150.719 25.4917 145.006 19.8406 137.892 19.8406ZM137.892 37.3272C135.197 37.3272 133.041 35.1947 133.041 32.529C133.041 29.8634 135.197 27.6776 137.892 27.6776C140.587 27.6776 142.796 29.8634 142.796 32.529C142.796 35.1947 140.587 37.3272 137.892 37.3272ZM125.119 57.1596H150.719V49.1627H125.119V57.1596Z" fill="#000411"/>
<path d="M166.64 38.5001C166.64 33.0622 171.275 28.6373 176.988 28.6373V19.9473C166.209 19.9473 157.478 28.2641 157.478 38.5001C157.478 48.7362 166.209 57.053 176.988 57.053V48.363C171.275 48.363 166.64 43.9381 166.64 38.5001Z" fill="#000411"/>
<path d="M201.262 35.8878C205.304 32.7956 207.837 28.1041 207.837 22.3463V19.8406H198.675V22.3463C198.675 26.3981 196.357 30.2366 192.908 32.1559V19.8406H183.746V57.1596H192.908V41.2724C197.597 42.2853 201.1 46.3904 201.1 51.3485V57.1596H210.262V51.3485C210.262 44.4711 206.705 38.9799 201.262 35.8878Z" fill="#000411"/>
<path d="M253.115 37.0606C254.336 35.248 255.077 32.9555 255.077 30.5032C255.077 24.5854 250.892 19.8406 245.79 19.8406H217.187V57.1596H245.79C250.892 57.1596 255.949 51.775 255.949 45.1642C255.949 42.0187 254.816 39.1932 253.115 37.0606ZM224.599 27.3577H244.918C246.226 27.3577 247.316 28.9571 247.316 30.5565C247.316 32.1559 246.226 33.7552 244.918 33.7552H224.599V27.3577ZM244.918 49.1627H224.599V41.1657H244.918C246.444 41.1657 247.665 43.1916 247.665 45.1642C247.665 47.0835 246.444 49.1627 244.918 49.1627Z" fill="#000411"/>
<path d="M275.321 19.8406C268.26 19.8406 262.547 25.4917 262.547 32.529C262.547 39.513 268.26 45.1642 275.321 45.1642C282.435 45.1642 288.148 39.513 288.148 32.529C288.148 25.4917 282.435 19.8406 275.321 19.8406ZM275.321 37.3272C272.626 37.3272 270.47 35.1947 270.47 32.529C270.47 29.8634 272.626 27.6776 275.321 27.6776C278.015 27.6776 280.225 29.8634 280.225 32.529C280.225 35.1947 278.015 37.3272 275.321 37.3272ZM262.547 57.1596H288.148V49.1627H262.547V57.1596Z" fill="#000411"/>
<path d="M321.66 19.8406H311.527L308.186 28.3173L304.844 19.8406H294.712L303.12 38.5001L294.712 57.1596H304.844L308.186 48.6828L311.527 57.1596H321.606H321.66L313.252 38.5001L321.66 19.8406Z" fill="#000411"/>
</g>
<path d="M32.3627 68.1181L8.83955 44.7685C8.17106 44.1049 7.77117 43.4869 7.67296 42.8026C7.57263 42.1037 7.79399 41.4035 8.37291 40.5983L33.3104 5.916C33.5595 5.56952 33.784 5.2787 33.9985 5.03388C34.0509 4.97399 34.0511 4.88565 33.9988 4.8256L31.1878 1.59709C31.1377 1.53951 31.0559 1.52603 30.99 1.56449C30.5829 1.8022 30.1922 2.24552 29.6308 3.0263L29.6324 3.02745L1.66706 42.1516C1.32206 42.6342 1.22778 42.9991 1.32073 43.3247C1.43224 43.7154 1.79081 44.1396 2.31055 44.6571L29.6959 71.9241C29.7302 71.9583 29.7735 71.9739 29.8217 71.9693C29.8699 71.9647 29.9095 71.9413 29.9368 71.9013L32.3818 68.3198C32.4253 68.2562 32.4173 68.1723 32.3627 68.1181ZM53.6481 55.6681C53.4983 55.5079 53.5089 55.2584 53.6716 55.111C53.8344 54.9636 54.0878 54.9739 54.2376 55.1341L60.3839 61.7132C60.5337 61.8734 60.5232 62.1228 60.3604 62.2703C60.1977 62.4177 59.9442 62.4074 59.7945 62.2471L53.6481 55.6681ZM39.7318 41.8242C39.582 41.664 39.5925 41.4145 39.7553 41.2671C39.918 41.1197 40.1714 41.13 40.3212 41.2902L46.2616 47.6488C46.2954 47.6849 46.3393 47.7021 46.3885 47.6983C46.4377 47.6945 46.4785 47.6709 46.5064 47.63L47.8355 45.6832C47.8777 45.6213 47.8716 45.5405 47.8205 45.4858L42.4361 39.7223C42.4015 39.6853 42.3561 39.6682 42.3058 39.6731L39.1694 39.9811C39.123 39.9856 39.0847 40.0076 39.0573 40.0455L36.5065 43.574C36.4618 43.636 36.467 43.7191 36.5191 43.7749L43.6762 51.4358C43.71 51.472 43.7539 51.4891 43.8031 51.4853C43.8524 51.4815 43.8932 51.4579 43.9211 51.4171L45.8647 48.5701C45.9069 48.5082 45.9008 48.4274 45.8496 48.3727L39.7318 41.8242ZM35.2154 39.5696C35.4362 39.5526 35.6292 39.715 35.6466 39.9323C35.6639 40.1496 35.4989 40.3396 35.2781 40.3567L14.2352 42.0138C14.0144 42.0308 13.8213 41.8685 13.804 41.6512C13.7867 41.4339 13.9517 41.2438 14.1725 41.2268L35.2154 39.5696ZM50.1161 58.6837L55.2767 64.2863C55.314 64.3268 55.3648 64.3441 55.419 64.3348L60.5816 63.4472C61.9533 63.2113 62.0221 63.1121 62.7201 62.1062L62.8604 61.9044L62.9149 61.8263C62.958 61.7644 62.9522 61.6828 62.9007 61.6277L54.4422 52.5737C54.4086 52.5377 54.365 52.5206 54.316 52.5241C54.267 52.5277 54.2262 52.5509 54.1981 52.5914L50.1026 58.4861C50.0598 58.5477 50.0653 58.6286 50.1161 58.6837ZM54.2065 64.2955L49.6992 59.4022C49.6657 59.3659 49.6219 59.3484 49.5727 59.3518C49.5235 59.3552 49.4825 59.3785 49.4543 59.4191L44.9818 65.8563C44.9447 65.9097 44.9433 65.9765 44.9781 66.0314C45.0129 66.0864 45.0737 66.1134 45.1376 66.1025L54.1174 64.5586C54.1759 64.5485 54.2209 64.51 54.24 64.4536C54.259 64.3973 54.2467 64.3392 54.2065 64.2955ZM38.8823 38.2949L60.083 8.15271C60.1164 8.10526 60.1216 8.04789 60.0973 7.99519C60.0729 7.94248 60.026 7.90934 59.9683 7.90419C59.7836 7.88769 59.5764 7.88118 59.3401 7.87998L56.0909 7.86337L56.0295 7.86306C55.7952 7.86473 55.8197 7.86634 55.675 8.07518L36.4821 35.7017C36.4399 35.7625 36.4446 35.8419 36.4937 35.8972L38.6361 38.3089C38.6691 38.3462 38.713 38.3644 38.7626 38.3616C38.8122 38.3587 38.8537 38.3356 38.8823 38.2949ZM60.8927 8.38519L39.7878 38.3912C39.7515 38.4429 39.7487 38.5071 39.7804 38.5618C39.8121 38.6164 39.8691 38.6457 39.9318 38.6396L42.2053 38.4164C42.2528 38.4117 42.2919 38.3888 42.3192 38.3495L62.1649 9.78317C62.2051 9.72534 62.2031 9.651 62.1598 9.59546L61.6019 8.87967L61.6021 8.87951C61.4316 8.6622 61.277 8.49117 61.1253 8.35755C61.0905 8.3269 61.0489 8.31392 61.0029 8.31937C60.9569 8.32484 60.9194 8.34723 60.8927 8.38519ZM35.3714 35.0657L43.1916 23.8092C43.2335 23.7489 43.2292 23.6702 43.181 23.6149L33.7805 12.8179C33.7478 12.7804 33.7041 12.7617 33.6545 12.764C33.6049 12.7664 33.5632 12.789 33.5341 12.8294L16.6305 36.3385C16.5937 36.3896 16.5901 36.4535 16.6209 36.5084C16.6517 36.5633 16.7079 36.5935 16.7705 36.5885L35.2545 35.1329C35.3032 35.1291 35.3435 35.1059 35.3714 35.0657ZM44.1259 22.4643L46.3768 19.2244C46.4187 19.1641 46.4144 19.0855 46.3662 19.0301L35.0513 6.03447C35.0197 5.99819 34.9781 5.97962 34.93 5.98042C34.882 5.98123 34.841 6.00119 34.8107 6.03851C34.6709 6.21027 34.5205 6.41008 34.3538 6.64192L32.4986 9.22215C32.4552 9.2825 32.4589 9.36252 32.5077 9.41857L43.8781 22.4779C43.9111 22.5158 43.9553 22.5345 44.0053 22.5318C44.0553 22.529 44.0973 22.5056 44.1259 22.4643ZM47.3111 17.8796L48.6342 15.9751C48.6763 15.9144 48.6717 15.8352 48.6228 15.7799L39.1496 5.06148C39.1188 5.02666 39.0789 5.00855 39.0325 5.00831L37.9137 5.00259C37.1642 4.99876 36.6282 5.00014 36.2182 5.07275C36.1607 5.08293 36.1164 5.12058 36.097 5.17581C36.0776 5.23104 36.0885 5.28821 36.1269 5.33232L47.0633 17.8932C47.0962 17.931 47.1404 17.9498 47.1905 17.947C47.2405 17.9443 47.2824 17.9208 47.3111 17.8796ZM49.5683 14.6305L54.1045 8.10094C54.1389 8.05153 54.1428 7.99129 54.1151 7.93782C54.0875 7.88434 54.0362 7.85286 53.9761 7.85256L43.622 7.79964C43.5585 7.79933 43.504 7.83441 43.4778 7.89248C43.4516 7.95057 43.4613 8.0148 43.5034 8.06251L49.3212 14.645C49.3543 14.6825 49.3984 14.7008 49.4482 14.6979C49.4981 14.695 49.5397 14.6716 49.5683 14.6305ZM62.9304 10.9161L55.5615 21.5231C55.5193 21.5837 55.5239 21.663 55.5728 21.7183L62.0753 29.0754L62.075 29.0757C62.4307 29.4686 62.7495 29.6781 63.0996 29.7812C63.4864 29.895 63.9532 29.9017 64.5537 29.8817L77.3218 29.4565C77.3825 29.4544 77.4335 29.4207 77.4592 29.3654C77.4849 29.3102 77.478 29.2492 77.4406 29.2012L63.1837 10.9091C63.1519 10.8683 63.1069 10.8471 63.0553 10.8485C63.0037 10.8499 62.9599 10.8736 62.9304 10.9161ZM54.6274 22.8676L53.2629 24.8316C53.221 24.8919 53.2253 24.9706 53.2735 25.0259L60.4976 33.3231C61.3478 34.3038 62.3592 34.2664 63.705 34.2165C63.8212 34.2122 63.9396 34.2078 64.0866 34.2032C64.1464 34.201 64.2074 34.1989 64.2694 34.1968L90.1331 33.319C90.1899 33.3171 90.2378 33.2877 90.2654 33.2379C90.293 33.188 90.2926 33.1317 90.2643 33.0823C90.1607 32.9017 90.0132 32.6957 89.8184 32.4518L65.9912 2.62605C65.6282 2.17162 65.3068 1.84947 64.95 1.65333C64.6026 1.46232 64.1886 1.3716 63.6252 1.36957L33.4633 1.26048C33.272 1.2595 33.0936 1.25885 32.9269 1.25946C32.8639 1.2597 32.81 1.29472 32.784 1.3524C32.758 1.41009 32.7674 1.47377 32.8089 1.52145L35.0034 4.04193C35.0503 4.09575 35.1242 4.1114 35.1887 4.08115C35.22 4.0665 35.2516 4.05236 35.2836 4.03876C35.9728 3.74539 36.7096 3.73719 37.9188 3.74335L39.3428 3.75062C39.3467 3.75064 39.3501 3.75054 39.3541 3.75027C39.3856 3.74817 39.4173 3.74833 39.4487 3.75076C39.4527 3.75106 39.4561 3.75122 39.4601 3.75124L61.8792 3.86582C62.6062 3.86953 63.1282 3.92079 63.6086 4.12417C64.105 4.33427 64.5036 4.6798 64.9619 5.26426L64.9644 5.26672L82.3885 27.6223L82.3881 27.6226C82.7153 28.0408 82.8761 28.4668 82.8913 28.8642C82.9011 29.1222 82.8493 29.3665 82.7409 29.5894C82.6337 29.8101 82.4746 30.0023 82.2689 30.1586C81.929 30.4169 81.4594 30.5772 80.8907 30.5983L64.5938 31.141C63.8646 31.1652 63.2836 31.153 62.7334 30.991C62.1481 30.8187 61.6417 30.4968 61.1121 29.91L61.1109 29.9088C61.1082 29.9061 61.1061 29.9038 61.1036 29.901L54.8744 22.8531C54.8413 22.8157 54.7972 22.7973 54.7474 22.8002C54.6976 22.8031 54.6559 22.8265 54.6274 22.8676ZM52.3286 26.1765L50.0778 29.4164C50.0359 29.4767 50.0402 29.5554 50.0884 29.6107L53.9187 34.01C54.7043 34.9123 54.9784 35.7755 54.8862 36.6754C54.7992 37.5239 54.38 38.3559 53.7598 39.2644L30.9176 72.7237C30.892 72.7613 30.863 72.7954 30.8312 72.8257C30.7993 72.8562 30.7828 72.8942 30.7824 72.9385C30.7819 72.9828 30.7976 73.0211 30.8289 73.0523L32.4568 74.6731C32.5545 74.7704 32.6445 74.8593 32.7284 74.9405C32.7627 74.9737 32.8053 74.9886 32.8527 74.9841C32.9001 74.9796 32.9391 74.9568 32.9665 74.9178L60.3039 35.9922C60.4709 35.7544 60.6347 35.5491 60.7991 35.3714C60.8342 35.3334 60.848 35.2856 60.8385 35.2347C60.829 35.1839 60.7988 35.1443 60.7525 35.1217C60.3317 34.9169 59.9267 34.6069 59.5243 34.1428L52.5764 26.1629C52.5435 26.125 52.4993 26.1063 52.4492 26.109C52.3992 26.1118 52.3573 26.1352 52.3286 26.1765ZM49.1435 30.7612L43.528 38.8442C43.485 38.9061 43.4909 38.9876 43.5423 39.0426L48.5081 44.3581C48.5419 44.3942 48.5858 44.4113 48.635 44.4075C48.6843 44.4038 48.7251 44.3801 48.753 44.3393L52.6963 38.5631C53.2073 37.8145 53.5499 37.1572 53.612 36.5519C53.6687 35.998 53.4792 35.4429 52.9454 34.8298L49.3913 30.7476C49.3583 30.7098 49.3141 30.6911 49.2641 30.6938C49.214 30.6966 49.1721 30.72 49.1435 30.7612ZM55.1392 51.4559L63.5997 60.512C63.6332 60.548 63.6768 60.5651 63.7258 60.5616C63.7747 60.5581 63.8155 60.5349 63.8436 60.4945L78.6404 39.2763C78.6758 39.2256 78.679 39.1631 78.649 39.109C78.619 39.0549 78.5644 39.0246 78.5028 39.028L65.2972 39.7441C64.4868 39.788 63.8745 39.8622 63.3813 40.0753C62.9157 40.2764 62.5165 40.6249 62.0914 41.2295L62.0919 41.2298L55.1249 51.2575C55.0819 51.3194 55.0877 51.4008 55.1392 51.4559ZM42.9886 52.5636L35.4038 44.4448C35.3693 44.4079 35.3241 44.3908 35.2739 44.3956L16.9797 46.1442C16.9175 46.1501 16.8675 46.1891 16.8464 46.2482C16.8253 46.3072 16.8392 46.3692 16.8835 46.4134L34.8495 64.3746C34.8838 64.4089 34.9271 64.4246 34.9753 64.42C35.0235 64.4155 35.0632 64.3921 35.0906 64.352L43.0036 52.761C43.0458 52.6991 43.0397 52.6183 42.9886 52.5636ZM15.67 45.0477C15.7402 45.0123 15.8182 44.9892 15.9015 44.9814L35.1838 43.1384C35.2304 43.1339 35.2688 43.1119 35.2963 43.0738L37.8567 39.5321C37.9006 39.4714 37.8965 39.3903 37.8467 39.3342L35.2932 36.4596C35.2593 36.4215 35.214 36.4032 35.1633 36.4072L15.8698 37.9266C15.7885 37.9329 15.7095 37.9239 15.6358 37.9022C15.5705 37.8829 15.5034 37.906 15.4637 37.9613L13.3084 40.9588C12.9756 41.4217 12.8337 41.7588 12.8708 42.0534C12.9087 42.354 13.1377 42.6687 13.5445 43.0754L15.4881 45.0185C15.537 45.0673 15.6084 45.0788 15.67 45.0477ZM85.0224 37.4114C85.3757 37.3923 85.6778 37.6587 85.6972 38.0064C85.7039 38.1265 85.676 38.2405 85.6221 38.3391C85.6209 38.3414 85.6199 38.3433 85.6187 38.3456C85.5516 38.4832 85.4781 38.6137 85.397 38.7437C85.3164 38.8727 85.2129 39.0256 85.0915 39.1997L66.5717 65.7566L66.4314 65.9584C65.5066 67.2912 65.4154 67.4226 63.6122 67.7327L41.0272 71.6304C40.9841 71.6378 40.9497 71.6598 40.9247 71.6957L38.8566 74.6724C38.8195 74.7258 38.818 74.7926 38.8528 74.8475C38.8876 74.9025 38.9484 74.9296 39.0124 74.9185L63.4035 70.725C65.0912 70.4348 65.1758 70.3129 66.0337 69.0765C66.0901 68.9953 66.1493 68.9099 66.2119 68.8202L89.7376 35.085C89.7976 34.9989 89.8541 34.9168 89.9071 34.8384C89.9411 34.788 89.9439 34.7268 89.9145 34.6734C89.8852 34.6201 89.832 34.5898 89.7713 34.5919L64.3095 35.456C63.5359 35.4822 62.9678 35.5084 62.528 35.6721C62.1226 35.8231 61.7691 36.122 61.3575 36.7082L34.1521 75.4458C34.1163 75.4967 34.113 75.5595 34.1432 75.6138C34.1734 75.6681 34.2284 75.6983 34.2903 75.6946C34.5598 75.6782 34.8919 75.6238 35.341 75.5503L35.3764 75.5445L35.3763 75.5437L36.8219 75.2952C36.8719 75.2866 36.9113 75.2578 36.9348 75.2126C36.9471 75.1891 36.9608 75.1664 36.9759 75.1446L61.0334 40.5187L61.0359 40.5163C61.6078 39.702 62.1764 39.2191 62.8696 38.9197C63.5359 38.6319 64.2745 38.5365 65.2269 38.4848L85.0224 37.4114ZM83.5365 38.755L79.9121 38.9515C79.8621 38.9543 79.8202 38.9776 79.7915 39.0188L63.522 62.3489L63.3817 62.5506C62.5092 63.808 62.4231 63.932 60.7196 64.2249L44.1991 67.0653C44.1559 67.0727 44.1215 67.0947 44.0965 67.1307L42.1904 69.8741C42.1532 69.9275 42.1518 69.9943 42.1867 70.0493C42.2215 70.1042 42.2823 70.1313 42.3463 70.1202L63.3915 66.4883C64.6636 66.2695 64.7273 66.1777 65.3729 65.2473L65.5132 65.0455L83.674 39.0034C83.7094 38.9527 83.7126 38.8902 83.6826 38.8361C83.6527 38.7819 83.5981 38.7516 83.5365 38.755ZM34.4351 65.0833L12.9739 43.6278C12.4415 43.0956 12.1374 42.6491 12.0744 42.149C12.0107 41.643 12.1999 41.1397 12.6562 40.5051L33.041 12.1546C33.0844 12.0942 33.0807 12.0142 33.0319 11.9581L31.7927 10.5349C31.7601 10.4974 31.7164 10.4787 31.6668 10.481C31.6172 10.4834 31.5754 10.506 31.5464 10.5464L9.41637 41.3242C9.03952 41.8484 8.8895 42.2629 8.94215 42.6298C8.99691 43.0113 9.2744 43.41 9.74755 43.8796L33.0505 67.0107C33.0849 67.0448 33.1281 67.0603 33.1762 67.0557C33.2243 67.0511 33.2639 67.0277 33.2912 66.9877L34.4539 65.2846C34.4972 65.2211 34.4894 65.1376 34.4351 65.0833ZM78.6953 29.4107L80.8455 29.3391C81.1347 29.3283 81.3514 29.2636 81.4863 29.1611C81.5336 29.1251 81.5676 29.0863 81.5871 29.0462C81.6055 29.0084 81.6141 28.9622 81.612 28.9086C81.6066 28.7672 81.5303 28.5913 81.3726 28.3902L81.3701 28.3877L63.9461 6.03214L63.9464 6.03188C63.631 5.63008 63.3807 5.40262 63.102 5.28464C62.8068 5.15968 62.4268 5.12787 61.8742 5.12506L41.1646 5.0192C41.101 5.01886 41.0465 5.05395 41.0203 5.11203C40.9941 5.17011 41.0038 5.23436 41.046 5.28207L42.5241 6.95443C42.5548 6.98926 42.5947 7.00737 42.6411 7.00761L59.3432 7.09297C60.0374 7.09651 60.5328 7.14412 60.9785 7.3328C61.4342 7.52568 61.8051 7.84921 62.2368 8.39974L62.2384 8.40128L78.566 29.3501C78.598 29.3912 78.6434 29.4124 78.6953 29.4107ZM31.1219 0.160585C31.1384 0.155702 31.1551 0.151467 31.1718 0.147943C31.1735 0.14758 31.175 0.147248 31.1767 0.146837C31.7776 0.000241184 32.4719 -0.00386758 33.4684 0.0012365L63.6252 0.110334C64.4217 0.113195 65.0306 0.254434 65.5721 0.552114C66.1043 0.844658 66.538 1.26808 66.9996 1.8458L90.8267 31.6715C91.4843 32.4946 91.7666 33.0939 91.7314 33.7589C91.6974 34.4001 91.3679 34.9761 90.7961 35.7961L67.2704 69.5313C67.2079 69.621 67.1486 69.7064 67.0922 69.7876C65.9552 71.4263 65.843 71.5879 63.6242 71.9694L35.597 76.7881H35.592L35.5517 76.7947C33.2898 77.1652 33.1773 77.1836 31.5438 75.5571L1.39751 45.5411C0.73621 44.8826 0.270012 44.3079 0.0866262 43.6655C-0.115281 42.9581 0.0253453 42.2556 0.618578 41.4257L28.584 2.30153H28.5865C29.3803 1.1975 29.9374 0.626431 30.6738 0.312965C30.8183 0.251463 30.965 0.201844 31.1173 0.161865C31.1189 0.161438 31.1203 0.161059 31.1219 0.160585Z" fill="#000411"/>
<defs>
<clipPath id="clip0_165_175">
<rect width="228.863" height="37.319" fill="white" transform="translate(102.137 19.8406)"/>
</clipPath>
</defs>
</svg>
