<svg width="370" height="87" viewBox="0 0 370 87" fill="none" xmlns="http://www.w3.org/2000/svg">
<g clip-path="url(#clip0_130_153)">
<path d="M132.305 56.0811H124.413V22.9509H114.171V65.1166H132.305V56.0811Z" fill="#FEFCFB"/>
<path d="M154.139 22.9509C146.246 22.9509 139.86 29.336 139.86 37.2872C139.86 45.1782 146.246 51.5633 154.139 51.5633C162.091 51.5633 168.477 45.1782 168.477 37.2872C168.477 29.336 162.091 22.9509 154.139 22.9509ZM154.139 42.7085C151.126 42.7085 148.717 40.2991 148.717 37.2872C148.717 34.2754 151.126 31.8057 154.139 31.8057C157.151 31.8057 159.621 34.2754 159.621 37.2872C159.621 40.2991 157.151 42.7085 154.139 42.7085ZM139.86 65.1166H168.477V56.0811H139.86V65.1166Z" fill="#FEFCFB"/>
<path d="M186.274 44.0338C186.274 37.8896 191.455 32.89 197.841 32.89V23.0714C185.792 23.0714 176.032 32.4683 176.032 44.0338C176.032 55.5992 185.792 64.9961 197.841 64.9961V55.1775C191.455 55.1775 186.274 50.1779 186.274 44.0338Z" fill="#FEFCFB"/>
<path d="M224.975 41.0822C229.494 37.5884 232.325 32.2876 232.325 25.7821V22.9509H222.084V25.7821C222.084 30.36 219.493 34.6971 215.637 36.8656V22.9509H205.396V65.1166H215.637V47.1661C220.879 48.3106 224.795 52.9488 224.795 58.5508V65.1166H235.037V58.5508C235.037 50.7803 231.06 44.5759 224.975 41.0822Z" fill="#FEFCFB"/>
<path d="M282.939 42.4074C284.304 40.3593 285.132 37.7691 285.132 34.9983C285.132 28.312 280.453 22.9509 274.751 22.9509H242.777V65.1166H274.751C280.453 65.1166 286.107 59.0327 286.107 51.5633C286.107 48.0094 284.84 44.8168 282.939 42.4074ZM251.063 31.4443H273.776C275.238 31.4443 276.456 33.2514 276.456 35.0585C276.456 36.8656 275.238 38.6727 273.776 38.6727H251.063V31.4443ZM273.776 56.0811H251.063V47.0456H273.776C275.482 47.0456 276.846 49.3346 276.846 51.5633C276.846 53.7318 275.482 56.0811 273.776 56.0811Z" fill="#FEFCFB"/>
<path d="M307.76 22.9509C299.868 22.9509 293.482 29.336 293.482 37.2872C293.482 45.1782 299.868 51.5633 307.76 51.5633C315.713 51.5633 322.099 45.1782 322.099 37.2872C322.099 29.336 315.713 22.9509 307.76 22.9509ZM307.76 42.7085C304.748 42.7085 302.338 40.2991 302.338 37.2872C302.338 34.2754 304.748 31.8057 307.76 31.8057C310.773 31.8057 313.243 34.2754 313.243 37.2872C313.243 40.2991 310.773 42.7085 307.76 42.7085ZM293.482 65.1166H322.099V56.0811H293.482V65.1166Z" fill="#FEFCFB"/>
<path d="M359.559 22.9509H348.233L344.498 32.5286L340.762 22.9509H329.436L338.834 44.0337L329.436 65.1166H340.762L344.498 55.5389L348.233 65.1166H359.499H359.559L350.161 44.0337L359.559 22.9509Z" fill="#FEFCFB"/>
</g>
<path d="M36.1758 76.9646L9.88106 50.5826C9.13382 49.8329 8.68681 49.1345 8.57702 48.3614C8.46488 47.5717 8.71231 46.7806 9.35944 45.8708L37.2352 6.68431C37.5137 6.29284 37.7646 5.96424 38.0043 5.68763C38.063 5.61996 38.0631 5.52015 38.0047 5.45231L34.8625 1.80451C34.8065 1.73944 34.715 1.72422 34.6414 1.76767C34.1863 2.03626 33.7496 2.53714 33.122 3.41932L33.1239 3.42063L1.86348 47.6258C1.47783 48.1711 1.37244 48.5833 1.47635 48.9513C1.60099 49.3927 2.00181 49.8721 2.58279 50.4568L33.1948 81.2649C33.2332 81.3035 33.2816 81.3211 33.3354 81.316C33.3893 81.3108 33.4335 81.2843 33.4641 81.2391L36.1972 77.1925C36.2457 77.1206 36.2368 77.0259 36.1758 76.9646ZM59.9692 62.8977C59.8018 62.7167 59.8135 62.4349 59.9955 62.2683C60.1774 62.1017 60.4607 62.1134 60.6281 62.2944L67.4986 69.7279C67.6661 69.9089 67.6543 70.1907 67.4724 70.3573C67.2904 70.5239 67.0072 70.5122 66.8397 70.3312L59.9692 62.8977ZM44.4132 47.2559C44.2457 47.0749 44.2575 46.793 44.4394 46.6265C44.6214 46.4599 44.9046 46.4716 45.0721 46.6526L51.7124 53.8369C51.7501 53.8778 51.7992 53.8971 51.8542 53.8929C51.9092 53.8886 51.9549 53.8619 51.986 53.8157L53.4717 51.6161C53.5189 51.5461 53.5121 51.4549 53.4549 51.3931L47.4361 44.8811C47.3974 44.8393 47.3467 44.8199 47.2905 44.8255L43.7846 45.1734C43.7326 45.1786 43.6899 45.2034 43.6592 45.2463L40.8079 49.233C40.7579 49.303 40.7637 49.3969 40.822 49.4599L48.8224 58.1158C48.8601 58.1566 48.9092 58.176 48.9642 58.1717C49.0193 58.1675 49.0649 58.1408 49.0961 58.0946L51.2687 54.8779C51.3159 54.808 51.309 54.7167 51.2519 54.6549L44.4132 47.2559ZM39.3647 44.7086C39.6115 44.6893 39.8273 44.8728 39.8466 45.1183C39.866 45.3638 39.6816 45.5785 39.4348 45.5978L15.9124 47.4701C15.6656 47.4894 15.4498 47.3059 15.4305 47.0604C15.4112 46.8149 15.5955 46.6002 15.8423 46.5809L39.3647 44.7086ZM56.021 66.305L61.7897 72.6352C61.8313 72.6809 61.8882 72.7005 61.9487 72.69L67.7196 71.6871C69.2529 71.4206 69.3299 71.3085 70.1101 70.1719L70.2669 69.944L70.3278 69.8557C70.376 69.7858 70.3695 69.6935 70.312 69.6313L60.8569 59.4014C60.8193 59.3608 60.7705 59.3414 60.7157 59.3455C60.661 59.3495 60.6154 59.3757 60.584 59.4214L56.0059 66.0817C55.958 66.1513 55.9643 66.2427 56.021 66.305ZM60.5934 72.6456L55.555 67.1168C55.5175 67.0757 55.4686 67.056 55.4136 67.0599C55.3586 67.0637 55.3128 67.09 55.2813 67.1359L50.2818 74.4091C50.2404 74.4694 50.2388 74.5449 50.2776 74.6069C50.3165 74.669 50.3845 74.6996 50.456 74.6872L60.4938 72.9428C60.5591 72.9314 60.6095 72.8879 60.6308 72.8242C60.6521 72.7606 60.6384 72.695 60.5934 72.6456ZM43.4636 43.2683L67.1623 9.2115C67.1996 9.15789 67.2054 9.09307 67.1782 9.03353C67.151 8.97397 67.0986 8.93653 67.0341 8.93071C66.8276 8.91207 66.5959 8.90471 66.3318 8.90336L62.6998 8.88459L62.6311 8.88423C62.3693 8.88612 62.3967 8.88795 62.2349 9.12391L40.7806 40.3383C40.7334 40.4069 40.7387 40.4967 40.7936 40.5592L43.1884 43.2841C43.2253 43.3262 43.2743 43.3468 43.3298 43.3436C43.3852 43.3404 43.4316 43.3143 43.4636 43.2683ZM68.0674 9.47418L44.4758 43.3771C44.4352 43.4354 44.4321 43.508 44.4675 43.5698C44.5029 43.6316 44.5667 43.6647 44.6368 43.6577L47.1781 43.4055C47.2312 43.4002 47.2749 43.3743 47.3054 43.3299L69.4895 11.0537C69.5344 10.9884 69.5322 10.9044 69.4838 10.8416L68.8601 10.0329L68.8604 10.0327C68.6698 9.78716 68.497 9.59393 68.3274 9.44295C68.2885 9.40831 68.2419 9.39365 68.1905 9.39981C68.1391 9.40599 68.0972 9.43129 68.0674 9.47418ZM39.539 39.6197L48.2806 26.9013C48.3275 26.8332 48.3227 26.7443 48.2688 26.6817L37.7606 14.4826C37.7241 14.4402 37.6753 14.4191 37.6199 14.4217C37.5644 14.4243 37.5178 14.4499 37.4853 14.4956L18.59 41.0578C18.5489 41.1156 18.5449 41.1877 18.5793 41.2498C18.6137 41.3118 18.6765 41.3459 18.7465 41.3403L39.4084 39.6956C39.4627 39.6913 39.5078 39.6651 39.539 39.6197ZM49.325 25.3818L51.8411 21.7211C51.8879 21.653 51.8831 21.5641 51.8293 21.5015L39.1812 6.81816C39.1459 6.77717 39.0993 6.75619 39.0457 6.7571C38.992 6.75801 38.9462 6.78056 38.9122 6.82274C38.756 7.01679 38.5879 7.24256 38.4016 7.5045L36.3277 10.4198C36.2792 10.488 36.2834 10.5784 36.3379 10.6418L49.048 25.3972C49.0849 25.4399 49.1343 25.4611 49.1902 25.458C49.2461 25.4549 49.293 25.4284 49.325 25.3818ZM52.8855 20.2016L54.3645 18.0497C54.4116 17.9812 54.4064 17.8917 54.3518 17.8292L43.7623 5.71882C43.7279 5.67947 43.6834 5.65901 43.6315 5.65874L42.3809 5.65228C41.543 5.64796 40.9439 5.64951 40.4856 5.73155C40.4213 5.74305 40.3718 5.78559 40.3501 5.848C40.3284 5.9104 40.3407 5.97499 40.3836 6.02482L52.6085 20.217C52.6453 20.2597 52.6947 20.2809 52.7507 20.2778C52.8066 20.2747 52.8535 20.2482 52.8855 20.2016ZM55.4086 16.5306L60.4794 9.15301C60.5178 9.09718 60.5222 9.02912 60.4912 8.9687C60.4603 8.90828 60.403 8.87272 60.3359 8.87238L48.7618 8.81258C48.6908 8.81223 48.6298 8.85186 48.6005 8.91748C48.5712 8.98311 48.5821 9.05569 48.6292 9.10959L55.1325 16.547C55.1695 16.5893 55.2188 16.61 55.2745 16.6067C55.3302 16.6034 55.3767 16.577 55.4086 16.5306ZM70.3452 12.3338L62.108 24.3183C62.0609 24.3868 62.066 24.4763 62.1207 24.5388L69.3893 32.8514L69.389 32.8517C69.7866 33.2957 70.1429 33.5324 70.5343 33.6488C70.9667 33.7775 71.4885 33.7851 72.1597 33.7625L86.4322 33.282C86.5001 33.2797 86.5571 33.2415 86.5858 33.1791C86.6146 33.1167 86.6069 33.0478 86.565 32.9935L70.6283 12.3259C70.5928 12.2798 70.5425 12.2558 70.4848 12.2574C70.4271 12.259 70.3782 12.2858 70.3452 12.3338ZM61.0638 25.8374L59.5386 28.0565C59.4918 28.1246 59.4966 28.2135 59.5505 28.2761L67.6257 37.6507C68.5761 38.7589 69.7067 38.7165 71.2111 38.6602C71.3409 38.6554 71.4732 38.6504 71.6376 38.6451C71.7045 38.6427 71.7726 38.6403 71.8419 38.6379L100.753 37.6462C100.816 37.644 100.87 37.6108 100.901 37.5545C100.932 37.4982 100.931 37.4346 100.9 37.3787C100.784 37.1747 100.619 36.9419 100.401 36.6663L73.7667 2.96709C73.3608 2.45365 73.0016 2.08966 72.6027 1.86805C72.2143 1.65223 71.7516 1.54972 71.1219 1.54744L37.4062 1.42417C37.1923 1.42307 36.9929 1.42233 36.8066 1.42303C36.736 1.4233 36.6758 1.46286 36.6468 1.52803C36.6177 1.59322 36.6282 1.66517 36.6746 1.71904L39.1277 4.56686C39.1801 4.62767 39.2627 4.64535 39.3348 4.61117C39.3698 4.59462 39.4051 4.57864 39.4409 4.56327C40.2112 4.2318 41.0349 4.22254 42.3865 4.2295L43.9783 4.23771C43.9827 4.23773 43.9865 4.23762 43.991 4.23732C44.0262 4.23495 44.0616 4.23512 44.0968 4.23787C44.1012 4.23821 44.105 4.23839 44.1095 4.23841L69.1701 4.36787C69.9827 4.37207 70.5663 4.42999 71.1033 4.65977C71.6581 4.89716 72.1037 5.28757 72.6161 5.94793L72.6189 5.95071L92.0959 31.2096L92.0954 31.2099C92.4612 31.6825 92.641 32.1638 92.6579 32.6128C92.6689 32.9043 92.6109 33.1803 92.4899 33.4322C92.37 33.6815 92.1922 33.8987 91.9622 34.0753C91.5823 34.3671 91.0574 34.5483 90.4216 34.5721L72.2046 35.1853C71.3894 35.2127 70.74 35.1988 70.125 35.0158C69.4707 34.8211 68.9046 34.4575 68.3126 33.7944L68.3113 33.793C68.3083 33.79 68.3059 33.7874 68.3031 33.7842L61.34 25.8211C61.303 25.7787 61.2537 25.758 61.198 25.7613C61.1423 25.7646 61.0958 25.791 61.0638 25.8374ZM58.4942 29.576L55.9782 33.2367C55.9313 33.3048 55.9361 33.3937 55.99 33.4563L60.2716 38.4269C61.1498 39.4464 61.4563 40.4217 61.3532 41.4384C61.2559 42.3971 60.7873 43.3372 60.094 44.3637L34.5604 82.1683C34.5318 82.2108 34.4994 82.2493 34.4639 82.2836C34.4282 82.3181 34.4098 82.361 34.4093 82.411C34.4088 82.4611 34.4263 82.5043 34.4613 82.5396L36.281 84.371C36.3902 84.4808 36.4908 84.5813 36.5847 84.6731C36.623 84.7105 36.6706 84.7274 36.7236 84.7223C36.7765 84.7172 36.8201 84.6915 36.8508 84.6474L67.4092 40.6665C67.5959 40.3979 67.779 40.1658 67.9628 39.965C68.002 39.9222 68.0174 39.8681 68.0068 39.8107C67.9962 39.7532 67.9624 39.7085 67.9106 39.683C67.4402 39.4515 66.9875 39.1014 66.5377 38.577L58.7712 29.5606C58.7344 29.5179 58.685 29.4967 58.6291 29.4998C58.5731 29.5029 58.5263 29.5294 58.4942 29.576ZM54.9338 34.7562L48.6567 43.8889C48.6086 43.9588 48.6152 44.0509 48.6727 44.1131L54.2236 50.1188C54.2613 50.1597 54.3104 50.179 54.3655 50.1748C54.4205 50.1705 54.4661 50.1438 54.4973 50.0976L58.9052 43.5713C59.4765 42.7255 59.8594 41.9828 59.9288 41.299C59.9922 40.6731 59.7804 40.0458 59.1837 39.3531L55.2108 34.7408C55.1739 34.6981 55.1245 34.6769 55.0686 34.68C55.0127 34.6831 54.9658 34.7096 54.9338 34.7562ZM61.6359 58.1385L71.0933 68.3707C71.1308 68.4113 71.1795 68.4307 71.2343 68.4267C71.289 68.4228 71.3345 68.3966 71.366 68.351L87.9061 44.3772C87.9457 44.3198 87.9493 44.2492 87.9158 44.1881C87.8823 44.1269 87.8213 44.0927 87.7524 44.0965L72.9908 44.9056C72.0849 44.9553 71.4005 45.0391 70.8492 45.2798C70.3287 45.5071 69.8825 45.9009 69.4073 46.5839L69.4079 46.5843L61.62 57.9143C61.5719 57.9842 61.5784 58.0763 61.6359 58.1385ZM48.0537 59.39L39.5752 50.2169C39.5367 50.1752 39.4862 50.1558 39.4301 50.1612L18.9804 52.137C18.9108 52.1437 18.8549 52.1877 18.8313 52.2544C18.8078 52.3211 18.8233 52.3912 18.8728 52.4412L38.9556 72.735C38.9939 72.7737 39.0424 72.7914 39.0963 72.7863C39.1501 72.7811 39.1945 72.7547 39.2251 72.7094L48.0705 59.613C48.1177 59.5431 48.1108 59.4519 48.0537 59.39ZM17.5164 50.8981C17.5948 50.8581 17.682 50.8319 17.7751 50.8232L39.3293 48.7408C39.3814 48.7357 39.4244 48.7108 39.4551 48.6679L42.3171 44.6662C42.3662 44.5975 42.3617 44.5059 42.306 44.4426L39.4516 41.1946C39.4137 41.1516 39.3631 41.1309 39.3064 41.1354L17.7397 42.8521C17.6488 42.8592 17.5604 42.8491 17.4781 42.8245C17.4051 42.8028 17.3301 42.8288 17.2857 42.8914L14.8764 46.2781C14.5044 46.8011 14.3458 47.182 14.3873 47.5149C14.4297 47.8546 14.6857 48.21 15.1404 48.6696L17.313 50.865C17.3677 50.9202 17.4475 50.9332 17.5164 50.8981ZM95.0402 42.27C95.4351 42.2484 95.7728 42.5494 95.7944 42.9423C95.8019 43.0779 95.7707 43.2068 95.7105 43.3182C95.7091 43.3208 95.708 43.323 95.7067 43.3256C95.6317 43.481 95.5495 43.6285 95.4588 43.7753C95.3688 43.9211 95.2531 44.0939 95.1174 44.2906L74.4155 74.2964L74.2587 74.5244C73.2249 76.0303 73.123 76.1788 71.1073 76.5291L45.8612 80.933C45.8131 80.9414 45.7746 80.9662 45.7467 81.0069L43.4348 84.3702C43.3934 84.4305 43.3918 84.5059 43.4307 84.568C43.4695 84.63 43.5375 84.6607 43.609 84.6482L70.874 79.91C72.7606 79.5822 72.8552 79.4444 73.8142 78.0475C73.8771 77.9557 73.9434 77.8592 74.0133 77.7578L100.311 39.6415C100.378 39.5442 100.441 39.4515 100.5 39.3629C100.538 39.3059 100.542 39.2367 100.509 39.1765C100.476 39.1162 100.416 39.082 100.349 39.0843L71.8868 40.0607C71.022 40.0903 70.387 40.1199 69.8954 40.3049C69.4422 40.4754 69.0471 40.8132 68.5869 41.4755L38.176 85.244C38.1361 85.3014 38.1324 85.3724 38.1661 85.4338C38.1999 85.4952 38.2614 85.5293 38.3305 85.5251C38.6318 85.5066 39.0031 85.4451 39.5051 85.362L39.5447 85.3555L39.5445 85.3546L41.1604 85.0738C41.2163 85.064 41.2604 85.0315 41.2867 84.9805C41.3004 84.954 41.3157 84.9283 41.3326 84.9037L68.2247 45.7809L68.2275 45.7781C68.8667 44.8581 69.5023 44.3125 70.2772 43.9742C71.022 43.649 71.8476 43.5412 72.9123 43.4828L95.0402 42.27ZM93.3791 43.7881L89.3277 44.0102C89.2718 44.0133 89.225 44.0396 89.1929 44.0861L71.0064 70.4461L70.8496 70.6741C69.8744 72.0947 69.7781 72.2349 67.8738 72.5658L49.4068 75.7751C49.3586 75.7835 49.3201 75.8083 49.2921 75.849L47.1614 78.9487C47.1199 79.009 47.1184 79.0845 47.1573 79.1466C47.1962 79.2087 47.2642 79.2392 47.3357 79.2268L70.8606 75.1231C72.2826 74.876 72.3538 74.7723 73.0755 73.721L73.2323 73.493L93.5329 44.0688C93.5724 44.0114 93.576 43.9408 93.5425 43.8797C93.509 43.8185 93.448 43.7843 93.3791 43.7881ZM38.4925 73.5357L14.5026 49.2938C13.9074 48.6924 13.5675 48.1879 13.4971 47.6229C13.4258 47.0512 13.6374 46.4825 14.1474 45.7655L36.934 13.7331C36.9825 13.6649 36.9784 13.5745 36.9238 13.5111L35.5387 11.9031C35.5022 11.8607 35.4534 11.8396 35.3979 11.8422C35.3425 11.8448 35.2958 11.8705 35.2633 11.9161L10.5258 46.691C10.1046 47.2832 9.93691 47.7516 9.99576 48.1661C10.057 48.5971 10.3672 49.0476 10.896 49.5783L36.9447 75.7134C36.9831 75.7519 37.0314 75.7694 37.0852 75.7642C37.139 75.759 37.1832 75.7326 37.2137 75.6874L38.5134 73.7631C38.5619 73.6914 38.5531 73.597 38.4925 73.5357ZM87.9676 33.2303L90.3711 33.1494C90.6944 33.1372 90.9366 33.064 91.0874 32.9483C91.1403 32.9076 91.1783 32.8638 91.2001 32.8185C91.2206 32.7758 91.2302 32.7235 91.2279 32.663C91.2219 32.5032 91.1365 32.3044 90.9603 32.0772L90.9575 32.0744L71.4805 6.81554L71.4809 6.81524C71.1283 6.36125 70.8485 6.10426 70.5369 5.97096C70.207 5.82977 69.7823 5.79383 69.1645 5.79065L46.0148 5.67104C45.9438 5.67067 45.8828 5.7103 45.8535 5.77593C45.8242 5.84155 45.8351 5.91415 45.8822 5.96805L47.5344 7.85761C47.5689 7.89696 47.6134 7.91742 47.6653 7.91769L66.3353 8.01414C67.1113 8.01814 67.6651 8.07193 68.1633 8.28511C68.6726 8.50304 69.0873 8.86859 69.5699 9.49062L69.5716 9.49235L87.823 33.1618C87.8588 33.2082 87.9095 33.2322 87.9676 33.2303ZM34.7888 0.18144C34.8073 0.175923 34.8259 0.171138 34.8446 0.167156C34.8466 0.166746 34.8482 0.166371 34.8501 0.165907C35.5218 0.000272507 36.2979 -0.00436986 37.4118 0.00139709L71.1219 0.124663C72.0122 0.127895 72.6928 0.287477 73.2981 0.623817C73.893 0.954354 74.3779 1.43276 74.8938 2.08552L101.528 35.7847C102.263 36.7147 102.579 37.3919 102.54 38.1431C102.502 38.8676 102.133 39.5185 101.494 40.4449L75.1966 78.5613C75.1266 78.6627 75.0604 78.7592 74.9974 78.8509C73.7263 80.7024 73.601 80.885 71.1207 81.3161L39.7912 86.7606H39.7856L39.7406 86.7681C37.2122 87.1866 37.0864 87.2074 35.2604 85.3697L1.56217 51.4555C0.822954 50.7115 0.301826 50.0622 0.0968329 49.3363C-0.128864 48.5371 0.0283316 47.7434 0.691462 46.8056L31.9519 2.60043H31.9547C32.842 1.35302 33.4648 0.707786 34.288 0.35361C34.4495 0.284121 34.6134 0.228058 34.7837 0.182886C34.7855 0.182404 34.787 0.181976 34.7888 0.18144Z" fill="#FEFCFB"/>
<defs>
<clipPath id="clip0_130_153">
<rect width="255.829" height="42.1656" fill="white" transform="translate(114.171 22.9509)"/>
</clipPath>
</defs>
</svg>
